<svg width="1200" height="1000" viewBox="0 0 1200 1000" fill="none" xmlns="http://www.w3.org/2000/svg">
  <defs>
    <linearGradient id="cardGlow" x1="0" y1="0" x2="1" y2="1">
      <stop offset="0%" stop-color="#ffffff" stop-opacity="0.35"/>
      <stop offset="100%" stop-color="#ffffff" stop-opacity="0.06"/>
    </linearGradient>
    <linearGradient id="pillBlue" x1="0" y1="0" x2="1" y2="1">
      <stop offset="0%" stop-color="#8DD1FF"/>
      <stop offset="100%" stop-color="#4D8EFF"/>
    </linearGradient>
  </defs>

  <rect width="1200" height="1000" rx="32" fill="none"/>

  <circle cx="155" cy="118" r="55" fill="#FFFFFF" fill-opacity="0.12"/>
  <circle cx="1068" cy="872" r="78" fill="#FFFFFF" fill-opacity="0.10"/>
  <circle cx="1065" cy="130" r="25" fill="#FFFFFF" fill-opacity="0.18"/>

  <rect x="165" y="180" width="870" height="620" rx="28" fill="url(#cardGlow)" stroke="#FFFFFF" stroke-opacity="0.35" stroke-width="2"/>

  <rect x="220" y="245" width="360" height="130" rx="18" fill="#FFFFFF" fill-opacity="0.88"/>
  <rect x="245" y="275" width="150" height="16" rx="8" fill="#C4D7FF"/>
  <rect x="245" y="308" width="255" height="14" rx="7" fill="#DEE8FF"/>
  <rect x="245" y="336" width="205" height="14" rx="7" fill="#E8EEFF"/>
  <circle cx="530" cy="310" r="28" fill="#4D8EFF"/>

  <rect x="620" y="245" width="360" height="260" rx="18" fill="#FFFFFF" fill-opacity="0.90"/>
  <rect x="655" y="290" width="290" height="18" rx="9" fill="#D7E4FF"/>
  <rect x="655" y="325" width="210" height="18" rx="9" fill="#E8EEFF"/>
  <rect x="655" y="370" width="290" height="90" rx="14" fill="url(#pillBlue)"/>

  <rect x="220" y="420" width="360" height="300" rx="18" fill="#FFFFFF" fill-opacity="0.90"/>
  <rect x="252" y="450" width="120" height="14" rx="7" fill="#C4D7FF"/>
  <rect x="252" y="483" width="290" height="10" rx="5" fill="#E5EDFF"/>
  <rect x="252" y="509" width="220" height="10" rx="5" fill="#E5EDFF"/>
  <rect x="252" y="550" width="58" height="128" rx="10" fill="#6FA8FF"/>
  <rect x="327" y="520" width="58" height="158" rx="10" fill="#94BFFF"/>
  <rect x="402" y="570" width="58" height="108" rx="10" fill="#BCD4FF"/>
  <rect x="477" y="500" width="58" height="178" rx="10" fill="#4D8EFF"/>

  <rect x="620" y="540" width="360" height="180" rx="18" fill="#FFFFFF" fill-opacity="0.90"/>
  <circle cx="690" cy="610" r="32" fill="#8EB6FF"/>
  <circle cx="795" cy="610" r="32" fill="#6A9DFF"/>
  <circle cx="900" cy="610" r="32" fill="#4D8EFF"/>
  <rect x="660" y="670" width="280" height="12" rx="6" fill="#DEE8FF"/>
</svg>
